<svg width="21" height="22" viewBox="0 0 21 22" fill="none" xmlns="http://www.w3.org/2000/svg">
<path d="M9.59478 0.928375C9.95471 0.16162 11.0453 0.16162 11.4052 0.928376L13.827 6.08744C13.9686 6.38901 14.251 6.60029 14.5803 6.6509L20.0777 7.49582C20.882 7.61944 21.2098 8.60063 20.6413 9.18283L16.6027 13.3191C16.3809 13.5463 16.2802 13.8653 16.3313 14.1787L17.2754 19.9672C17.4098 20.7911 16.5351 21.4073 15.8046 21.0033L10.9839 18.3375C10.6828 18.171 10.3172 18.171 10.0161 18.3375L5.19545 21.0033C4.46489 21.4073 3.59018 20.7911 3.72457 19.9672L4.66872 14.1787C4.71983 13.8653 4.61909 13.5463 4.39727 13.3191L0.358694 9.18283C-0.209758 8.60063 0.118038 7.61944 0.922286 7.49582L6.41968 6.6509C6.74897 6.60029 7.03142 6.38901 7.17299 6.08744L9.59478 0.928375Z" fill="white"/>
</svg>
